<svg id="Group_4878" data-name="Group 4878" xmlns="http://www.w3.org/2000/svg" width="36.395" height="36.395" viewBox="0 0 36.395 36.395">
  <g id="Group_4867" data-name="Group 4867">
    <g id="Ellipse_396" data-name="Ellipse 396" fill="#fff" stroke="#f4f4f5" stroke-width="1">
      <circle cx="18.197" cy="18.197" r="18.197" stroke="none"/>
      <circle cx="18.197" cy="18.197" r="17.697" fill="none"/>
    </g>
  </g>
  <g id="Bhim" transform="translate(9.124 3.729)">
    <path id="Path_227" data-name="Path 227" d="M19.747,25.614A6.611,6.611,0,0,0,18.5,26.68c-1.63,1.48-3.246,2.976-4.871,4.461a.525.525,0,0,1-.5.261L20.675,5.028l3.254,6.119c1.121,2.157,2.222,4.325,3.379,6.463a.8.8,0,0,1-.194,1.194c-2.445,2.206-4.857,4.449-7.28,6.68a.117.117,0,0,0-.1.138Z" transform="translate(-13.127 -5.028)" fill="#fe7a09"/>
    <path id="Path_228" data-name="Path 228" d="M24.565,26.4c2.423-2.231,4.835-4.474,7.28-6.68a.8.8,0,0,0,.194-1.194c-1.157-2.138-2.258-4.306-3.379-6.463l1.39-4.723.136-.463a.342.342,0,0,1,.257.3Q33.7,13.4,36.963,19.616a.48.48,0,0,1-.093.711q-6.961,6.356-13.9,12.735a.4.4,0,0,1-.3.11c.155-.549.307-1.1.464-1.648.432-1.512.87-3.022,1.3-4.536a.516.516,0,0,0,.052-.455l-.009.009C24.594,26.559,24.556,26.464,24.565,26.4Z" transform="translate(-17.858 -5.945)" fill="#028c3c"/>
    <path id="Path_229" data-name="Path 229" d="M26.335,45.61c-.008.063.03.157-.1.138a.117.117,0,0,1,.1-.138Z" transform="translate(-19.629 -25.153)" fill="#fefefe"/>
  </g>
</svg>
