<svg id="Group_4853" data-name="Group 4853" xmlns="http://www.w3.org/2000/svg" width="36.395" height="36.395" viewBox="0 0 36.395 36.395">
  <g id="Ellipse_396" data-name="Ellipse 396" fill="#fff" stroke="#f4f4f5" stroke-width="1">
    <circle cx="18.197" cy="18.197" r="18.197" stroke="none"/>
    <circle cx="18.197" cy="18.197" r="17.697" fill="none"/>
  </g>
  <g id="Group_4852" data-name="Group 4852" transform="translate(5.077 13.875)">
    <path id="Path_220" data-name="Path 220" d="M405.976,218.621v3.209h-1.017v-7.922h2.7a2.452,2.452,0,0,1,1.75.689,2.183,2.183,0,0,1,.727,1.668,2.21,2.21,0,0,1-.727,1.68,2.443,2.443,0,0,1-1.744.676Zm0-3.74v2.767h1.706a1.33,1.33,0,0,0,1-.411,1.348,1.348,0,0,0,.025-1.908l-.025-.025a1.313,1.313,0,0,0-1-.417Zm6.5,1.352a2.543,2.543,0,0,1,1.782.6,2.142,2.142,0,0,1,.651,1.655v3.335h-.973v-.752h-.044a1.943,1.943,0,0,1-1.68.929,2.182,2.182,0,0,1-1.5-.531,1.676,1.676,0,0,1-.6-1.327,1.618,1.618,0,0,1,.638-1.339,2.666,2.666,0,0,1,1.7-.5,3.064,3.064,0,0,1,1.491.328V218.4a1.165,1.165,0,0,0-.417-.9,1.478,1.478,0,0,0-.979-.373,1.566,1.566,0,0,0-1.352.72l-.9-.562a2.48,2.48,0,0,1,2.179-1.055Zm-1.314,3.936a.82.82,0,0,0,.335.663,1.242,1.242,0,0,0,.79.265,1.616,1.616,0,0,0,1.143-.474,1.492,1.492,0,0,0,.505-1.118,2.073,2.073,0,0,0-1.327-.379,1.76,1.76,0,0,0-1.036.3A.9.9,0,0,0,411.163,220.169Zm9.331-3.759-3.4,7.808h-1.049l1.263-2.729-2.236-5.073h1.105l1.611,3.891h.025l1.573-3.891Z" transform="translate(-394.508 -213.277)" fill="#464d53"/>
    <path id="Path_221" data-name="Path 221" d="M218.635,293.959a5.621,5.621,0,0,0-.076-.922H214.27v1.75h2.457a2.106,2.106,0,0,1-.91,1.383v1.137h1.466a4.437,4.437,0,0,0,1.352-3.348Z" transform="translate(-210.026 -289.31)" fill="#2e6bb3"/>
    <path id="Path_222" data-name="Path 222" d="M114.51,339.987a4.351,4.351,0,0,0,3.013-1.1l-1.466-1.137a2.755,2.755,0,0,1-4.1-1.44h-1.51v1.175A4.555,4.555,0,0,0,114.51,339.987Z" transform="translate(-109.96 -330.889)" fill="#3ea34c"/>
    <path id="Path_223" data-name="Path 223" d="M99.973,264.787a2.744,2.744,0,0,1,0-1.744v-1.169h-1.51a4.51,4.51,0,0,0,0,4.081Z" transform="translate(-97.975 -259.367)" fill="#ffaa13"/>
    <path id="Path_224" data-name="Path 224" d="M114.51,199.567a2.448,2.448,0,0,1,1.744.682l1.3-1.3a4.342,4.342,0,0,0-3.039-1.188,4.549,4.549,0,0,0-4.062,2.508l1.51,1.175A2.719,2.719,0,0,1,114.51,199.567Z" transform="translate(-109.96 -197.766)" fill="#ea3730"/>
  </g>
</svg>
