<svg xmlns="http://www.w3.org/2000/svg" viewBox="0 0 61.51 19.91"><defs><style>.cls-1{fill:#fff;}.cls-2{fill:#ffcc02;}</style></defs><title>Kissht-log0-white</title><g id="Layer_2" data-name="Layer 2"><g id="Layer_1-2" data-name="Layer 1"><path class="cls-1" d="M36,13.8a4.81,4.81,0,0,0-1.81-.34,6,6,0,0,0-1.54.15c-.34.11-.89.29-1.63.55a5.28,5.28,0,0,1-1.68.4.91.91,0,0,1-.78-.33,1.11,1.11,0,0,1-.26-.65,1.35,1.35,0,0,1,.86-1.18,6.69,6.69,0,0,1,1.94-.62A11.56,11.56,0,0,1,33,11.6a12.09,12.09,0,0,1,4.71.92V5.68H16.42l-.66,1.79h8.42v2.6c-.37-.1-.91-.22-1.61-.36a9.38,9.38,0,0,0-1.75-.21,8.9,8.9,0,0,0-2.21.29,5,5,0,0,0-2,1,2.22,2.22,0,0,0-.84,1.8,3.28,3.28,0,0,0,.61,1.9,4.18,4.18,0,0,0,1.49,1.35,3.7,3.7,0,0,0,1.75.48,10.88,10.88,0,0,0,1.8-.39l2-.52a3.85,3.85,0,0,1,1-.14,3,3,0,0,1,.67.08,1.4,1.4,0,0,1,.57.29.73.73,0,0,1,.24.56,1.25,1.25,0,0,1-.8,1.06,7,7,0,0,1-1.85.66,9,9,0,0,1-1.67.22,4.44,4.44,0,0,1-1.41-.19,4.71,4.71,0,0,1-1.05-.53,7.27,7.27,0,0,0-.88-.52,2.31,2.31,0,0,0-.95-.17,1.57,1.57,0,0,0-.86.24.87.87,0,0,0-.38.79,1.34,1.34,0,0,0,.78,1.31,9.92,9.92,0,0,0,5.16.77,5.74,5.74,0,0,0,1.94-.52A5.19,5.19,0,0,0,25.62,18a2.61,2.61,0,0,0,.73-1.8,2.31,2.31,0,0,0-.51-1.47,3.29,3.29,0,0,0-1.37-1,4.85,4.85,0,0,0-1.81-.34,6,6,0,0,0-1.54.15c-.35.11-.89.29-1.63.55a5.4,5.4,0,0,1-1.68.4.93.93,0,0,1-.79-.33,1.09,1.09,0,0,1-.25-.65,1.33,1.33,0,0,1,.86-1.18,6.59,6.59,0,0,1,1.94-.62,11.44,11.44,0,0,1,1.85-.18,12,12,0,0,1,4.71.92v-5h9.59v2.6c-.37-.1-.91-.22-1.61-.36a9.38,9.38,0,0,0-1.75-.21,8.9,8.9,0,0,0-2.21.29,5,5,0,0,0-2,1,2.22,2.22,0,0,0-.84,1.8,3.35,3.35,0,0,0,.61,1.9,4.21,4.21,0,0,0,1.5,1.35,3.63,3.63,0,0,0,1.74.48,10.67,10.67,0,0,0,1.8-.39l2-.52a3.78,3.78,0,0,1,1-.14,2.93,2.93,0,0,1,.67.08,1.34,1.34,0,0,1,.57.29.73.73,0,0,1,.24.56c0,.42-.26.77-.8,1.06a6.88,6.88,0,0,1-1.84.66,9.11,9.11,0,0,1-1.67.22,4.46,4.46,0,0,1-1.42-.19,4.71,4.71,0,0,1-1-.53,7.27,7.27,0,0,0-.88-.52,2.28,2.28,0,0,0-.95-.17,1.57,1.57,0,0,0-.86.24.87.87,0,0,0-.38.79,1.34,1.34,0,0,0,.78,1.31,9.92,9.92,0,0,0,5.16.77,5.79,5.79,0,0,0,2-.52A5.15,5.15,0,0,0,37.16,18a2.61,2.61,0,0,0,.73-1.8,2.31,2.31,0,0,0-.51-1.47A3.22,3.22,0,0,0,36,13.8Z"/><path class="cls-1" d="M61.51,7.48V5.65h-6.4V1.73L52.83.16v5.5h-2.3l-1,1.81h3.33v9.46a3.07,3.07,0,0,0,3.19,3,4.57,4.57,0,0,0,4.5-3.18L58,15.29c0,2.57-.54,3.77-1.79,3.77-.91,0-1.08-1.65-1.08-1.94V7.48Z"/><path class="cls-1" d="M47.86,10.11a4.6,4.6,0,0,0-2.73-.84,4.28,4.28,0,0,0-1.47.23,4.7,4.7,0,0,0-1.1.56,6.23,6.23,0,0,0-.81.69l-.63.66v-4h6.65l1.06-1.76H41.08v-4l-2-1.47,0,18.37,1.95,1.24V14.86a3.37,3.37,0,0,1,.79-2,6.93,6.93,0,0,1,1.95-1.74A4.67,4.67,0,0,1,46,10.36a2.06,2.06,0,0,1,1.74.82,3.36,3.36,0,0,1,.63,2.12A5.53,5.53,0,0,1,48,15.23a6,6,0,0,1-.78,1.43,13.24,13.24,0,0,1-1,1.16,7.72,7.72,0,0,0-.76.84l2.06,1.22c.21-.16.53-.45,1-.86a8.17,8.17,0,0,0,1.28-1.74,4.85,4.85,0,0,0,.64-2.45,5.57,5.57,0,0,0-.67-2.57A5.75,5.75,0,0,0,47.86,10.11Z"/><path class="cls-2" d="M14.9,6.38a2.52,2.52,0,1,1-2.51-2.52A2.51,2.51,0,0,1,14.9,6.38Z"/><rect class="cls-1" x="11.33" y="10.09" width="2.12" height="9.75"/><polygon class="cls-1" points="9.18 5.61 6.38 5.61 1.9 9.88 1.9 2.61 0 0 0 19.85 1.9 19.85 1.9 14.22 1.9 12.99 9.14 19.8 9.14 16.79 4.59 12.57 1.9 12.57 1.9 12.48 9.18 5.61"/></g></g></svg>