<svg id="Group_4853" data-name="Group 4853" xmlns="http://www.w3.org/2000/svg" width="36.395" height="36.395" viewBox="0 0 36.395 36.395">
  <g id="Ellipse_396" data-name="Ellipse 396" fill="#fff" stroke="#f4f4f5" stroke-width="1">
    <circle cx="18.197" cy="18.197" r="18.197" stroke="none"/>
    <circle cx="18.197" cy="18.197" r="17.697" fill="none"/>
  </g>
  <g id="Group_6129" data-name="Group 6129" transform="translate(-1804.048 -912.551)">
    <g id="g460" transform="translate(1828.167 928.149)">
      <path id="path462" d="M2.65.441A1.781,1.781,0,0,0,.97-.75H.954A1.773,1.773,0,0,0-.33-.2,1.775,1.775,0,0,0-1.613-.75H-1.63a1.77,1.77,0,0,0-1.161.431V-.456A.262.262,0,0,0-3.052-.7H-4.243a.263.263,0,0,0-.263.264V6.033a.263.263,0,0,0,.263.264h1.191a.262.262,0,0,0,.259-.227V1.426a.417.417,0,0,1,0-.047.434.434,0,0,1,.411-.4h.22a.463.463,0,0,1,.252.1.438.438,0,0,1,.161.348l0,4.621a.264.264,0,0,0,.263.264H-.288A.263.263,0,0,0-.027,6.06V1.42a.437.437,0,0,1,.194-.372A.484.484,0,0,1,.386.975h.22a.435.435,0,0,1,.413.445l0,4.614a.264.264,0,0,0,.263.264H2.477a.264.264,0,0,0,.263-.264V1.072a1.658,1.658,0,0,0-.09-.63" transform="translate(4.506 0.75)" fill="#54c1f0"/>
    </g>
    <g id="g464" transform="translate(1823.911 926.87)">
      <path id="path466" d="M1.24.5H.558V-.6h0v0a.24.24,0,0,0-.24-.24.239.239,0,0,0-.045.005C-.483-.636-.331.41-1.71.5h-.134A.276.276,0,0,0-1.9.506h0a.263.263,0,0,0-.206.256V1.953a.264.264,0,0,0,.264.263h.719V7.268a.26.26,0,0,0,.261.261H.312a.26.26,0,0,0,.26-.261V2.217H1.24A.264.264,0,0,0,1.5,1.953V.762A.264.264,0,0,0,1.24.5" transform="translate(2.108 0.848)" fill="#54c1f0"/>
    </g>
    <g id="g468" transform="translate(1818.74 928.218)">
      <path id="path470" d="M1.568,0H.377A.263.263,0,0,0,.114.263V2.726A.279.279,0,0,1-.165,3h-.5a.279.279,0,0,1-.28-.279l0-2.458A.264.264,0,0,0-1.211,0H-2.4a.263.263,0,0,0-.263.263v2.7A1.69,1.69,0,0,0-.909,4.719s.77,0,.793,0A.277.277,0,0,1,.132,5a.277.277,0,0,1-.243.275l-.02,0-1.742.006a.263.263,0,0,0-.263.263V6.738A.263.263,0,0,0-1.873,7H.074A1.69,1.69,0,0,0,1.831,5.245V.263A.263.263,0,0,0,1.568,0" transform="translate(2.666)" fill="#233266"/>
    </g>
    <g id="g472" transform="translate(1808.687 928.217)">
      <path id="path474" d="M1.021.808v.735a.28.28,0,0,1-.279.28H-.014V.351H.742A.279.279,0,0,1,1.021.63Zm.1-2.183h-2.6a.258.258,0,0,0-.258.258V.051s0,0,0,.007,0,.011,0,.016V5.356A.257.257,0,0,0-1.5,5.62H-.282a.263.263,0,0,0,.263-.263l0-1.81h1.14A1.546,1.546,0,0,0,2.744,1.927V.247A1.548,1.548,0,0,0,1.126-1.374" transform="translate(1.736 1.374)" fill="#233266"/>
    </g>
    <g id="g476" transform="translate(1813.586 928.224)">
      <path id="path478" d="M1.037,1.841v.186a.275.275,0,0,1,0,.044.276.276,0,0,1-.276.219h-.5A.272.272,0,0,1-.02,2.027V1.8s0-.006,0-.008V1.2h0V1.008A.271.271,0,0,1,.261.747h.5a.272.272,0,0,1,.281.262ZM.848-3.131H-.805a.256.256,0,0,0-.264.247v.463s0,.006,0,.009,0,.007,0,.01v.635a.272.272,0,0,0,.28.262H.784a.274.274,0,0,1,.237.252V-1.1a.264.264,0,0,1-.23.245H.012A1.653,1.653,0,0,0-1.763.8V2.186A1.561,1.561,0,0,0-.1,3.832h2.16a.68.68,0,0,0,.7-.655v-4.52c0-1.1-.565-1.788-1.915-1.788" transform="translate(1.763 3.131)" fill="#233266"/>
    </g>
  </g>
</svg>
