<svg xmlns="http://www.w3.org/2000/svg" width="36.395" height="36.395" viewBox="0 0 36.395 36.395">
  <g id="Group_4866" data-name="Group 4866" transform="translate(0)">
    <g id="Group_4862" data-name="Group 4862">
      <g id="Group_4861" data-name="Group 4861">
        <path id="Path_225" data-name="Path 225" d="M18.2,0a18.2,18.2,0,1,0,18.2,18.2A18.154,18.154,0,0,0,18.2,0Z" fill="#673ab7"/>
      </g>
    </g>
    <g id="Group_4865" data-name="Group 4865" transform="translate(9.884 4.828)">
      <g id="Group_4864" data-name="Group 4864">
        <g id="Group_4863" data-name="Group 4863">
          <path id="Path_226" data-name="Path 226" d="M29.645,14.237H26.163l-1.741-3.022L21.573,6.332a.437.437,0,0,0-.4-.232H18.644a.436.436,0,0,0-.4.7l5.619,7.44H13.975a.505.505,0,0,0-.475.465v2.092a.505.505,0,0,0,.475.465h2.3v5.657A5.5,5.5,0,0,0,16.9,25.4a5.7,5.7,0,0,0,4.986,3.022,5.808,5.808,0,0,0,2.533-.62v4.572a.505.505,0,0,0,.475.465h2.137a.505.505,0,0,0,.475-.465V17.26h2.216a.505.505,0,0,0,.475-.465V14.7A.675.675,0,0,0,29.645,14.237Zm-5.3,8.68a2.533,2.533,0,0,1-5.065,0V17.26h5.065v5.657Z" transform="translate(-13.5 -6.1)" fill="#fff"/>
        </g>
      </g>
    </g>
  </g>
</svg>
